<svg width="3976" height="689" viewBox="0 0 3976 689" fill="none" xmlns="http://www.w3.org/2000/svg">
<path d="M1204.78 383.42C1200.71 418.633 1188.29 449.769 1167.53 476.828C1147.15 503.516 1120.09 524.273 1086.36 539.1C1053 553.927 1014.82 561.34 971.821 561.34C924.375 561.34 882.675 552.259 846.72 534.096C811.136 515.933 783.336 490.728 763.32 458.48C743.304 425.861 733.296 387.868 733.296 344.5C733.296 301.132 743.304 263.324 763.32 231.076C783.336 198.457 811.136 173.067 846.72 154.904C882.675 136.741 924.375 127.66 971.821 127.66C1014.82 127.66 1053 135.073 1086.36 149.9C1120.09 164.727 1147.15 185.484 1167.53 212.172C1188.29 238.86 1200.71 269.996 1204.78 305.58H1109.71C1106 285.935 1098.03 269.069 1085.8 254.984C1073.57 240.528 1057.82 229.408 1038.54 221.624C1019.27 213.84 996.841 209.948 971.264 209.948C941.982 209.948 916.591 215.508 895.092 226.628C873.964 237.377 857.655 252.945 846.164 273.332C834.674 293.348 828.928 317.071 828.928 344.5C828.928 371.929 834.674 395.837 846.164 416.224C857.655 436.24 873.964 451.808 895.092 462.928C916.591 473.677 941.982 479.052 971.264 479.052C996.841 479.052 1019.27 475.345 1038.54 467.932C1057.82 460.148 1073.57 449.213 1085.8 435.128C1098.03 420.672 1106 403.436 1109.71 383.42H1204.78ZM1547.22 553L1533.88 437.352L1548.89 395.096L1533.88 353.396L1547.22 236.636H1643.41L1625.06 395.096L1643.41 553H1547.22ZM1571.69 395.096C1565.76 428.456 1554.82 457.739 1538.88 482.944C1523.32 507.779 1503.49 527.053 1479.39 540.768C1455.67 554.483 1428.98 561.34 1399.33 561.34C1368.56 561.34 1341.32 554.483 1317.6 540.768C1293.87 526.683 1275.34 507.223 1262 482.388C1249.02 457.183 1242.54 428.085 1242.54 395.096C1242.54 361.736 1249.02 332.639 1262 307.804C1275.34 282.599 1293.87 263.139 1317.6 249.424C1341.32 235.339 1368.56 228.296 1399.33 228.296C1428.98 228.296 1455.67 235.153 1479.39 248.868C1503.49 262.583 1523.5 282.043 1539.44 307.248C1555.38 332.083 1566.13 361.365 1571.69 395.096ZM1336.5 395.096C1336.5 413.629 1340.21 429.939 1347.62 444.024C1355.4 458.109 1365.97 469.229 1379.31 477.384C1392.66 485.168 1408.04 489.06 1425.46 489.06C1442.88 489.06 1459.19 485.168 1474.39 477.384C1489.96 469.229 1503.67 458.109 1515.53 444.024C1527.39 429.939 1536.66 413.629 1543.33 395.096C1536.66 376.563 1527.39 360.253 1515.53 346.168C1503.67 331.712 1489.96 320.592 1474.39 312.808C1459.19 304.653 1442.88 300.576 1425.46 300.576C1408.04 300.576 1392.66 304.653 1379.31 312.808C1365.97 320.592 1355.4 331.712 1347.62 346.168C1340.21 360.253 1336.5 376.563 1336.5 395.096ZM1690.49 236.636H1784.45L1803.35 350.616V553H1710.5V340.608L1690.49 236.636ZM1957.37 233.3V313.364C1947.73 311.14 1938.09 309.472 1928.45 308.36C1918.82 307.248 1909.73 306.692 1901.21 306.692C1882.68 306.692 1866 310.584 1851.17 318.368C1836.34 326.152 1824.67 338.199 1816.14 354.508C1807.62 370.817 1803.35 391.389 1803.35 416.224L1783.89 392.872C1786.12 370.261 1790.19 349.133 1796.13 329.488C1802.06 309.472 1810.21 292.051 1820.59 277.224C1831.34 262.027 1844.5 250.165 1860.07 241.64C1875.63 232.744 1894.17 228.296 1915.67 228.296C1922.71 228.296 1929.75 228.852 1936.79 229.964C1944.21 230.705 1951.06 231.817 1957.37 233.3ZM2168.49 561.34C2131.05 561.34 2097.51 554.483 2067.85 540.768C2038.57 526.683 2015.4 507.037 1998.35 481.832C1981.67 456.627 1973.33 427.344 1973.33 393.984C1973.33 360.995 1981.3 332.083 1997.24 307.248C2013.55 282.413 2035.79 263.139 2063.96 249.424C2092.13 235.339 2124.19 228.296 2160.15 228.296C2196.84 228.296 2228.35 236.451 2254.67 252.76C2280.99 268.699 2301.19 291.309 2315.27 320.592C2329.73 349.875 2336.96 384.347 2336.96 424.008H2047.84V362.292H2286.92L2250.78 384.532C2249.29 365.999 2244.66 350.245 2236.88 337.272C2229.46 324.299 2219.27 314.291 2206.3 307.248C2193.32 300.205 2178.13 296.684 2160.7 296.684C2141.8 296.684 2125.31 300.576 2111.22 308.36C2097.51 315.773 2086.76 326.337 2078.97 340.052C2071.56 353.396 2067.85 369.149 2067.85 387.312C2067.85 409.181 2072.67 427.9 2082.31 443.468C2091.95 459.036 2106.03 470.897 2124.56 479.052C2143.1 487.207 2165.52 491.284 2191.84 491.284C2215.56 491.284 2239.47 487.948 2263.56 481.276C2287.66 474.233 2309.34 464.411 2328.62 451.808V514.08C2307.86 528.907 2283.58 540.583 2255.78 549.108C2228.35 557.263 2199.25 561.34 2168.49 561.34ZM2569.74 561.34C2532.31 561.34 2498.76 554.483 2469.11 540.768C2439.82 526.683 2416.66 507.037 2399.61 481.832C2382.93 456.627 2374.59 427.344 2374.59 393.984C2374.59 360.995 2382.56 332.083 2398.49 307.248C2414.8 282.413 2437.04 263.139 2465.21 249.424C2493.39 235.339 2525.45 228.296 2561.4 228.296C2598.1 228.296 2629.61 236.451 2655.92 252.76C2682.24 268.699 2702.44 291.309 2716.53 320.592C2730.98 349.875 2738.21 384.347 2738.21 424.008H2449.09V362.292H2688.17L2652.03 384.532C2650.55 365.999 2645.91 350.245 2638.13 337.272C2630.72 324.299 2620.52 314.291 2607.55 307.248C2594.58 300.205 2579.38 296.684 2561.96 296.684C2543.05 296.684 2526.56 300.576 2512.47 308.36C2498.76 315.773 2488.01 326.337 2480.23 340.052C2472.81 353.396 2469.11 369.149 2469.11 387.312C2469.11 409.181 2473.93 427.9 2483.56 443.468C2493.2 459.036 2507.29 470.897 2525.82 479.052C2544.35 487.207 2566.78 491.284 2593.09 491.284C2616.82 491.284 2640.73 487.948 2664.82 481.276C2688.91 474.233 2710.6 464.411 2729.87 451.808V514.08C2709.11 528.907 2684.83 540.583 2657.03 549.108C2629.61 557.263 2600.51 561.34 2569.74 561.34ZM2776.42 236.636H2870.39L2889.29 350.616V553H2796.44V340.608L2776.42 236.636ZM3043.3 233.3V313.364C3033.67 311.14 3024.03 309.472 3014.39 308.36C3004.75 307.248 2995.67 306.692 2987.15 306.692C2968.61 306.692 2951.93 310.584 2937.11 318.368C2922.28 326.152 2910.6 338.199 2902.08 354.508C2893.55 370.817 2889.29 391.389 2889.29 416.224L2869.83 392.872C2872.05 370.261 2876.13 349.133 2882.06 329.488C2887.99 309.472 2896.15 292.051 2906.53 277.224C2917.28 262.027 2930.43 250.165 2946 241.64C2961.57 232.744 2980.1 228.296 3001.6 228.296C3008.65 228.296 3015.69 228.852 3022.73 229.964C3030.14 230.705 3037 231.817 3043.3 233.3ZM3183.01 370.076C3183.01 392.316 3187.27 411.405 3195.8 427.344C3204.32 443.283 3216.74 455.7 3233.05 464.596C3249.73 473.121 3269.75 477.384 3293.1 477.384C3316.82 477.384 3336.84 473.121 3353.15 464.596C3369.46 455.7 3381.87 443.283 3390.4 427.344C3398.92 411.405 3403.19 392.316 3403.19 370.076V136H3497.71V374.524C3497.71 411.961 3489.18 444.765 3472.13 472.936C3455.08 500.736 3431.17 522.42 3400.41 537.988C3369.64 553.556 3333.87 561.34 3293.1 561.34C3252.33 561.34 3216.56 553.556 3185.79 537.988C3155.4 522.42 3131.49 500.736 3114.07 472.936C3097.02 444.765 3088.49 411.961 3088.49 374.524V136H3183.01V370.076ZM3565.17 236.636H3658.02V337.272L3654.13 349.504V425.676L3658.02 448.472V644.74H3565.17V236.636ZM3625.77 395.096C3632.07 361.365 3643.01 332.083 3658.57 307.248C3674.51 282.043 3694.34 262.583 3718.07 248.868C3742.16 235.153 3768.85 228.296 3798.13 228.296C3829.27 228.296 3856.51 235.339 3879.86 249.424C3903.58 263.139 3922.12 282.599 3935.46 307.804C3948.81 332.639 3955.48 361.736 3955.48 395.096C3955.48 428.085 3948.81 457.183 3935.46 482.388C3922.12 507.223 3903.58 526.683 3879.86 540.768C3856.51 554.483 3829.27 561.34 3798.13 561.34C3768.48 561.34 3741.79 554.483 3718.07 540.768C3694.71 527.053 3675.07 507.779 3659.13 482.944C3643.19 457.739 3632.07 428.456 3625.77 395.096ZM3861.51 395.096C3861.51 376.563 3857.62 360.253 3849.84 346.168C3842.42 331.712 3832.05 320.592 3818.7 312.808C3805.36 304.653 3789.97 300.576 3772.55 300.576C3755.13 300.576 3738.64 304.653 3723.07 312.808C3707.5 320.592 3693.79 331.712 3681.93 346.168C3670.43 360.253 3661.35 376.563 3654.68 395.096C3661.35 413.629 3670.43 429.939 3681.93 444.024C3693.79 458.109 3707.5 469.229 3723.07 477.384C3738.64 485.168 3755.13 489.06 3772.55 489.06C3789.97 489.06 3805.36 485.168 3818.7 477.384C3832.05 469.229 3842.42 458.109 3849.84 444.024C3857.62 429.939 3861.51 413.629 3861.51 395.096Z" fill="url(#paint0_linear_1_521)"/>
<path d="M212.716 263.966L234.445 273.958C271.77 291.12 314.73 291.12 352.056 273.958L373.785 263.966L363.793 285.695C346.631 323.02 346.631 365.981 363.793 403.306L373.785 425.035L352.056 415.044C314.73 397.881 271.77 397.881 234.445 415.044L212.716 425.035L222.707 403.306C239.87 365.981 239.87 323.02 222.707 285.695L212.716 263.966Z" fill="url(#paint1_linear_1_521)"/>
<path d="M538.814 637.752L204.929 637.751C167.598 637.751 131.795 622.921 105.398 596.523L41.2277 532.353C14.83 505.955 0 470.153 0 432.821V51.25H381.57C418.902 51.25 454.705 66.0802 481.103 92.4782L545.273 156.649C571.671 183.047 586.501 218.849 586.501 256.181V590.052L439.875 443.426V197.875H146.625V491.125H392.188L538.814 637.752Z" fill="url(#paint2_linear_1_521)"/>
<path d="M0 51.25V409.909C0 424.972 2.84296 440.346 11.985 452.317C34.6106 481.944 69.1866 491.274 146.625 491.125V197.875L0 51.25Z" fill="url(#paint3_linear_1_521)"/>
<path d="M212.715 263.967L234.445 273.958C271.77 291.121 314.73 291.121 352.055 273.958L373.785 263.967L363.793 285.696C346.63 323.021 346.63 365.982 363.793 403.307L373.785 425.036L352.055 415.044C314.73 397.882 271.77 397.882 234.445 415.044L212.715 425.036L222.707 403.307C239.87 365.982 239.87 323.021 222.707 285.696L212.715 263.967Z" fill="url(#paint4_radial_1_521)"/>
<path d="M362.838 51.25H0L146.625 197.875H439.875C441.854 123.804 438.429 83.4943 398.384 59.5173C387.769 53.1622 375.21 51.25 362.838 51.25Z" fill="url(#paint5_linear_1_521)"/>
<path d="M0 51.25V409.909C0 424.972 2.84296 440.346 11.985 452.317C34.6106 481.944 69.1866 491.274 146.625 491.125V197.875L0 51.25Z" fill="url(#paint6_linear_1_521)"/>
<defs>
<linearGradient id="paint0_linear_1_521" x1="2343" y1="553" x2="2343" y2="-223.509" gradientUnits="userSpaceOnUse">
<stop stop-color="#A56DFF"/>
<stop offset="1" stop-color="#634199"/>
</linearGradient>
<linearGradient id="paint1_linear_1_521" x1="293.25" y1="51.25" x2="293.25" y2="637.752" gradientUnits="userSpaceOnUse">
<stop stop-color="#A56DFF"/>
<stop offset="1" stop-color="#8D5CDC"/>
</linearGradient>
<linearGradient id="paint2_linear_1_521" x1="293.25" y1="51.25" x2="293.25" y2="637.752" gradientUnits="userSpaceOnUse">
<stop stop-color="#A56DFF"/>
<stop offset="1" stop-color="#8D5CDC"/>
</linearGradient>
<linearGradient id="paint3_linear_1_521" x1="293.25" y1="51.25" x2="293.25" y2="637.752" gradientUnits="userSpaceOnUse">
<stop stop-color="#A56DFF"/>
<stop offset="1" stop-color="#8D5CDC"/>
</linearGradient>
<radialGradient id="paint4_radial_1_521" cx="0" cy="0" r="1" gradientUnits="userSpaceOnUse" gradientTransform="translate(293.25 344.501) rotate(90.0001) scale(80.5351 80.5349)">
<stop stop-color="#A56DFF"/>
<stop offset="1" stop-color="#8D5CDC"/>
</radialGradient>
<linearGradient id="paint5_linear_1_521" x1="0" y1="124.563" x2="440.305" y2="124.563" gradientUnits="userSpaceOnUse">
<stop offset="0.313658" stop-color="#A56DFF"/>
<stop offset="1" stop-color="#634199"/>
</linearGradient>
<linearGradient id="paint6_linear_1_521" x1="73.3126" y1="51.25" x2="73.3126" y2="491.127" gradientUnits="userSpaceOnUse">
<stop stop-color="#A56DFF"/>
<stop offset="1" stop-color="#634199"/>
</linearGradient>
</defs>
</svg>