<svg width="32" height="32" viewBox="0 0 32 33" fill="white" xmlns="http://www.w3.org/2000/svg">
<g clip-path="url(#clip0_86_908)">
<path fill-rule="evenodd" clip-rule="evenodd" d="M16.0002 1.13623C12.2018 1.1382 8.52801 2.48351 5.63566 4.93159C2.74331 7.37968 0.821042 10.7709 0.212563 14.4989C-0.395915 18.2269 0.349073 22.0485 2.31433 25.2805C4.27959 28.5124 7.33696 30.9439 10.9397 32.1402C11.7346 32.2877 12.034 31.7951 12.034 31.3762C12.034 30.9574 12.0181 29.7429 12.0128 28.4152C7.5617 29.3767 6.62115 26.5369 6.62115 26.5369C5.8952 24.6928 4.84602 24.2081 4.84602 24.2081C3.39412 23.2228 4.95466 23.2413 4.95466 23.2413C6.56287 23.3546 7.40804 24.8825 7.40804 24.8825C8.83345 27.314 11.1517 26.6106 12.0631 26.1997C12.2062 25.1696 12.6221 24.4689 13.0805 24.0711C9.52494 23.6707 5.78922 22.3061 5.78922 16.2101C5.76718 14.6292 6.3572 13.1003 7.43718 11.9398C7.27292 11.5394 6.72447 9.92187 7.59349 7.72481C7.59349 7.72481 8.93677 7.29804 11.9942 9.35548C14.6167 8.6424 17.3837 8.6424 20.0062 9.35548C23.061 7.29804 24.4016 7.72481 24.4016 7.72481C25.2732 9.9166 24.7248 11.5341 24.5605 11.9398C25.6439 13.1005 26.2352 14.632 26.2111 16.2154C26.2111 22.3245 22.4675 23.6707 18.9066 24.0632C19.4789 24.5585 19.9903 25.5253 19.9903 27.0111C19.9903 29.1396 19.9717 30.852 19.9717 31.3762C19.9717 31.8004 20.2605 32.2956 21.0712 32.1402C24.6744 30.9438 27.7321 28.5118 29.6973 25.2793C31.6625 22.0468 32.4071 18.2246 31.798 14.4963C31.1888 10.768 29.2656 7.3767 26.3723 4.92904C23.479 2.48137 19.8043 1.13695 16.0055 1.13623H16.0002Z"/>
<path d="M6.06006 23.9788C6.02562 24.0579 5.89845 24.0816 5.79512 24.0262C5.69179 23.9709 5.61496 23.8682 5.65205 23.7865C5.68915 23.7048 5.81367 23.6838 5.917 23.7391C6.02033 23.7944 6.0998 23.8998 6.06006 23.9788Z"/>
<path d="M6.70896 24.6981C6.65409 24.7256 6.59131 24.7332 6.53138 24.7198C6.47145 24.7063 6.41809 24.6726 6.38043 24.6243C6.2771 24.5137 6.25589 24.3609 6.33538 24.2924C6.41486 24.2239 6.55794 24.2555 6.66127 24.3662C6.7646 24.4768 6.78844 24.6296 6.70896 24.6981Z"/>
<path d="M7.33916 25.6122C7.24113 25.6807 7.0742 25.6122 6.98147 25.4752C6.95583 25.4506 6.93544 25.4212 6.92151 25.3886C6.90758 25.356 6.90039 25.3209 6.90039 25.2855C6.90039 25.2501 6.90758 25.2151 6.92151 25.1825C6.93544 25.1499 6.95583 25.1204 6.98147 25.0959C7.0795 25.03 7.24643 25.0959 7.33916 25.2302C7.43189 25.3646 7.43454 25.5437 7.33916 25.6122Z"/>
<path d="M8.19547 26.4972C8.10804 26.5947 7.93053 26.5684 7.78481 26.4366C7.63909 26.3049 7.60464 26.1258 7.69207 26.0309C7.7795 25.9361 7.95702 25.9625 8.10804 26.0915C8.25905 26.2206 8.2882 26.4024 8.19547 26.4972Z"/>
<path d="M9.39555 27.0135C9.35581 27.1373 9.17564 27.1926 8.99548 27.14C8.81532 27.0873 8.69609 26.9397 8.73054 26.8133C8.76498 26.6868 8.94779 26.6289 9.13061 26.6868C9.31342 26.7448 9.42999 26.8844 9.39555 27.0135Z"/>
<path d="M10.7038 27.1032C10.7038 27.2323 10.5554 27.3429 10.3647 27.3456C10.1739 27.3482 10.0176 27.2428 10.0176 27.1137C10.0176 26.9847 10.1659 26.874 10.3567 26.8714C10.5475 26.8688 10.7038 26.9715 10.7038 27.1032Z"/>
<path d="M11.9219 26.9004C11.9457 27.0295 11.8132 27.1638 11.6225 27.1954C11.4317 27.227 11.2648 27.1506 11.241 27.0242C11.2171 26.8977 11.3549 26.7608 11.5404 26.7265C11.7258 26.6923 11.898 26.7713 11.9219 26.9004Z"/>
</g>
</svg>
